# xmcd
#
# Track frame offsets: 
#        150
#        19939
#        39753
#        62007
#        82478
#        101463
#        117327
#        132565
#        159934
#        182566
#        216687
#        239620
#        263698
#        282271
#
# Disc length: 4130 seconds
#
# Revision: 0
# Processed by: cddbd v1.5.1PL0 Copyright (c) Steve Scherf et al.
# Submitted via: ExactAudioCopy v0.95a5
#
DISCID=cc10200e
DTITLE=PD Hale and the blue room - Out of the Blue
DYEAR=2002
DGENRE=Blues
TTITLE0=Welcome to my blue room
TTITLE1=I'm a bluesman
TTITLE2=rain's a comin'
TTITLE3=that don't mean a thing
TTITLE4=watchin you
TTITLE5=wanted man
TTITLE6=seperation blues
TTITLE7=down on my luck
TTITLE8=little darlin'
TTITLE9=what yer gunna do?
TTITLE10=little sister
TTITLE11=better man
TTITLE12=can't keep up with you
TTITLE13=busted again
EXTD=
EXTT0=
EXTT1=
EXTT2=
EXTT3=
EXTT4=
EXTT5=
EXTT6=
EXTT7=
EXTT8=
EXTT9=
EXTT10=
EXTT11=
EXTT12=
EXTT13=
PLAYORDER=
